<?xml version="1.0" encoding="UTF-8" standalone="no"?><!DOCTYPE svg PUBLIC "-//W3C//DTD SVG 1.1//EN" "http://www.w3.org/graphics/svg/1.1/dtd/svg11.dtd">
<svg width="600" height ="400" version="1.1" xmlns="http://www.w3.org/2000/svg"
 xmlns:xlink="http://www.w3.org/1999/xlink"
 xmlns:ev="http://www.w3.org/2001/xml-events">

<!-- SVG plot written using Boost.Plot program (Creator Jacob Voytko) --> 
<!-- Use, modification and distribution of Boost.Plot subject to the --> 
<!-- Boost Software License, Version 1.0.--> 
<!-- (See accompanying file LICENSE_1_0.txt --> 
<!-- or copy at http://www.boost.org/LICENSE_1_0.txt) --> 

<!-- SVG Plot Copyright John Maddock 2008 --> 
<meta name="copyright" content="John Maddock" />
<meta name="date" content="2008" />
<!-- Use, modification and distribution of this Scalable Vector Graphic file -->
<!-- are subject to the Boost Software License, Version 1.0. -->
<!-- (See accompanying file LICENSE_1_0.txt or copy at http://www.boost.org/LICENSE_1_0.txt) -->

<clipPath id="plot_window"><rect x="68.4" y="53" width="380.1" height="284.2"/></clipPath>
<g id="imageBackground" stroke="rgb(255,255,0)" fill="rgb(255,255,255)" stroke-width="2"><rect x="0" y="0" width="600" height="400"/></g>
<g id="plotBackground" stroke="rgb(255,250,240)" fill="rgb(255,255,255)" stroke-width="2"><rect x="67.4" y="52" width="382.1" height="286.2"/></g>
<g id="yMinorGrid" stroke="rgb(200,220,255)" stroke-width="0.5"></g>
<g id="yMajorGrid" stroke="rgb(200,220,255)" stroke-width="1"></g>
<g id="xMinorGrid" stroke="rgb(200,220,255)" stroke-width="0.5"></g>
<g id="xMajorGrid" stroke="rgb(200,220,255)" stroke-width="1"></g>
<g id="yAxis" stroke="rgb(0,0,0)" stroke-width="1"><line x1="74.75" y1="52" x2="74.75" y2="343.2"/><line x1="67.4" y1="52" x2="67.4" y2="338.2"/></g>
<g id="xAxis" stroke="rgb(0,0,0)" stroke-width="1"><line x1="62.4" y1="210.6" x2="449.5" y2="210.6"/><line x1="62.4" y1="338.2" x2="449.5" y2="338.2"/></g>
<g id="yMinorTicks" stroke="rgb(0,0,0)" stroke-width="1"><path d="M65.4,194 L67.4,194 M65.4,177.4 L67.4,177.4 M65.4,160.7 L67.4,160.7 M65.4,127.5 L67.4,127.5 M65.4,110.9 L67.4,110.9 M65.4,94.24 L67.4,94.24 M65.4,61 L67.4,61 M65.4,210.6 L67.4,210.6 M65.4,227.2 L67.4,227.2 M65.4,243.8 L67.4,243.8 M65.4,260.5 L67.4,260.5 M65.4,277.1 L67.4,277.1 M65.4,293.7 L67.4,293.7 M65.4,310.3 L67.4,310.3 M65.4,327 L67.4,327 "/></g>
<g id="xMinorTicks" stroke="rgb(0,0,0)" stroke-width="1"><path d="M93.12,338.2 L93.12,340.2 M111.5,338.2 L111.5,340.2 M129.9,338.2 L129.9,340.2 M166.6,338.2 L166.6,340.2 M185,338.2 L185,340.2 M203.3,338.2 L203.3,340.2 M240.1,338.2 L240.1,340.2 M258.4,338.2 L258.4,340.2 M276.8,338.2 L276.8,340.2 M313.6,338.2 L313.6,340.2 M331.9,338.2 L331.9,340.2 M350.3,338.2 L350.3,340.2 M387,338.2 L387,340.2 M405.4,338.2 L405.4,340.2 M423.8,338.2 L423.8,340.2 "/></g>
<g id="yMajorTicks" stroke="rgb(0,0,0)" stroke-width="2"><path d="M62.4,210.6 L67.4,210.6 M62.4,144.1 L67.4,144.1 M62.4,77.62 L67.4,77.62 M62.4,210.6 L67.4,210.6 M62.4,277.1 L67.4,277.1 "/></g>
<g id="xMajorTicks" stroke="rgb(0,0,0)" stroke-width="2"><path d="M74.75,338.2 L74.75,343.2 M148.2,338.2 L148.2,343.2 M221.7,338.2 L221.7,343.2 M295.2,338.2 L295.2,343.2 M368.7,338.2 L368.7,343.2 M442.2,338.2 L442.2,343.2 M74.75,338.2 L74.75,343.2 "/></g>
<g id="plotLabels" fill="rgb(0,0,0)">
<text x="74.75" y="361.2" text-anchor="middle" font-size="12" font-family="Verdana">0</text>
<text x="148.2" y="361.2" text-anchor="middle" font-size="12" font-family="Verdana">1</text>
<text x="221.7" y="361.2" text-anchor="middle" font-size="12" font-family="Verdana">2</text>
<text x="295.2" y="361.2" text-anchor="middle" font-size="12" font-family="Verdana">3</text>
<text x="368.7" y="361.2" text-anchor="middle" font-size="12" font-family="Verdana">4</text>
<text x="442.2" y="361.2" text-anchor="middle" font-size="12" font-family="Verdana">5</text>
<text x="74.75" y="361.2" text-anchor="middle" font-size="12" font-family="Verdana">0</text>
<text x="57.4" y="214.2" text-anchor="end" font-size="12" font-family="Verdana">0</text>
<text x="57.4" y="147.7" text-anchor="end" font-size="12" font-family="Verdana">5</text>
<text x="57.4" y="81.22" text-anchor="end" font-size="12" font-family="Verdana">10</text>
<text x="57.4" y="214.2" text-anchor="end" font-size="12" font-family="Verdana">0</text>
<text x="57.4" y="280.7" text-anchor="end" font-size="12" font-family="Verdana">-5</text></g>
<g id="yLabel" fill="rgb(0,0,0)">
<text x="26" y="195.1" text-anchor="middle" transform = "rotate(-90 26 195.1 )" font-size="14" font-family="Verdana">log(beta(a, z))</text></g>
<g id="xLabel" fill="rgb(0,0,0)">
<text x="258.4" y="381" text-anchor="middle" font-size="14" font-family="Verdana">z</text></g>
<g id="plotLines" stroke-width="2"><g clip-path="url(#plot_window)" stroke="rgb(0,0,139)"><path d="M74.75,57.5 L76.59,161.1 L78.42,169.9 L80.26,174.9 L82.1,178.3 L83.93,180.9 L85.77,183 L87.61,184.7 L89.44,186.2 L91.28,187.5 L93.12,188.6 L94.96,189.5 L96.79,190.4 L98.63,191.2 L100.5,192 L102.3,192.7 L104.1,193.3 L106,193.9 L107.8,194.4 L109.7,194.9 L111.5,195.4 L113.3,195.8 L115.2,196.2 L117,196.6 L118.8,197 L120.7,197.4 L122.5,197.7 L124.3,198.1 L126.2,198.4 L128,198.7 L129.9,199 L131.7,199.3 L133.5,199.5 L135.4,199.8 L137.2,200 L139,200.3 L140.9,200.5 L142.7,200.7 L144.6,201 L146.4,201.2 L148.2,201.4 L150.1,201.6 L151.9,201.8 L153.7,202 L155.6,202.2 L157.4,202.3 L159.3,202.5 L161.1,202.7 L162.9,202.8 L164.8,203 L166.6,203.2 L168.4,203.3 L170.3,203.5 L172.1,203.6 L173.9,203.8 L175.8,203.9 L177.6,204.1 L179.5,204.2 L181.3,204.3 L183.1,204.5 L185,204.6 L186.8,204.7 L188.6,204.8 L190.5,205 L192.3,205.1 L194.2,205.2 L196,205.3 L197.8,205.4 L199.7,205.5 L201.5,205.7 L203.3,205.8 L205.2,205.9 L207,206 L208.9,206.1 L210.7,206.2 L212.5,206.3 L214.4,206.4 L216.2,206.5 L218,206.6 L219.9,206.7 L221.7,206.8 L223.5,206.9 L225.4,207 L227.2,207 L229.1,207.1 L230.9,207.2 L232.7,207.3 L234.6,207.4 L236.4,207.5 L238.2,207.6 L240.1,207.6 L241.9,207.7 L243.8,207.8 L245.6,207.9 L247.4,208 L249.3,208 L251.1,208.1 L252.9,208.2 L254.8,208.3 L256.6,208.3 L258.5,208.4 L260.3,208.5 L262.1,208.6 L264,208.6 L265.8,208.7 L267.6,208.8 L269.5,208.8 L271.3,208.9 L273.1,209 L275,209 L276.8,209.1 L278.7,209.2 L280.5,209.2 L282.3,209.3 L284.2,209.4 L286,209.4 L287.8,209.5 L289.7,209.6 L291.5,209.6 L293.4,209.7 L295.2,209.7 L297,209.8 L298.9,209.9 L300.7,209.9 L302.5,210 L304.4,210 L306.2,210.1 L308,210.1 L309.9,210.2 L311.7,210.3 L313.6,210.3 L315.4,210.4 L317.2,210.4 L319.1,210.5 L320.9,210.5 L322.7,210.6 L324.6,210.6 L326.4,210.7 L328.3,210.7 L330.1,210.8 L331.9,210.8 L333.8,210.9 L335.6,210.9 L337.4,211 L339.3,211 L341.1,211.1 L343,211.1 L344.8,211.2 L346.6,211.2 L348.5,211.3 L350.3,211.3 L352.1,211.4 L354,211.4 L355.8,211.5 L357.6,211.5 L359.5,211.6 L361.3,211.6 L363.2,211.7 L365,211.7 L366.8,211.7 L368.7,211.8 L370.5,211.8 L372.3,211.9 L374.2,211.9 L376,212 L377.9,212 L379.7,212 L381.5,212.1 L383.4,212.1 L385.2,212.2 L387,212.2 L388.9,212.3 L390.7,212.3 L392.6,212.3 L394.4,212.4 L396.2,212.4 L398.1,212.5 L399.9,212.5 L401.7,212.5 L403.6,212.6 L405.4,212.6 L407.2,212.7 L409.1,212.7 L410.9,212.7 L412.8,212.8 L414.6,212.8 L416.4,212.8 L418.3,212.9 L420.1,212.9 L421.9,213 L423.8,213 L425.6,213 L427.5,213.1 L429.3,213.1 L431.1,213.1 L433,213.2 L434.8,213.2 L436.6,213.2 L438.5,213.3 L440.3,213.3 " fill="none"/></g>
<g clip-path="url(#plot_window)" stroke="rgb(139,0,0)"><path d="M74.75,57.5 L76.59,161.5 L78.42,170.8 L80.26,176.2 L82.1,180 L83.93,182.9 L85.77,185.4 L87.61,187.4 L89.44,189.2 L91.28,190.8 L93.12,192.2 L94.96,193.4 L96.79,194.6 L98.63,195.7 L100.5,196.6 L102.3,197.6 L104.1,198.4 L106,199.2 L107.8,200 L109.7,200.7 L111.5,201.4 L113.3,202 L115.2,202.6 L117,203.2 L118.8,203.8 L120.7,204.3 L122.5,204.9 L124.3,205.4 L126.2,205.9 L128,206.3 L129.9,206.8 L131.7,207.2 L133.5,207.6 L135.4,208 L137.2,208.4 L139,208.8 L140.9,209.2 L142.7,209.6 L144.6,209.9 L146.4,210.3 L148.2,210.6 L150.1,210.9 L151.9,211.2 L153.7,211.6 L155.6,211.9 L157.4,212.2 L159.3,212.5 L161.1,212.7 L162.9,213 L164.8,213.3 L166.6,213.6 L168.4,213.8 L170.3,214.1 L172.1,214.3 L173.9,214.6 L175.8,214.8 L177.6,215.1 L179.5,215.3 L181.3,215.5 L183.1,215.8 L185,216 L186.8,216.2 L188.6,216.4 L190.5,216.6 L192.3,216.8 L194.2,217.1 L196,217.3 L197.8,217.5 L199.7,217.7 L201.5,217.8 L203.3,218 L205.2,218.2 L207,218.4 L208.9,218.6 L210.7,218.8 L212.5,219 L214.4,219.1 L216.2,219.3 L218,219.5 L219.9,219.6 L221.7,219.8 L223.5,220 L225.4,220.1 L227.2,220.3 L229.1,220.5 L230.9,220.6 L232.7,220.8 L234.6,220.9 L236.4,221.1 L238.2,221.2 L240.1,221.4 L241.9,221.5 L243.8,221.7 L245.6,221.8 L247.4,222 L249.3,222.1 L251.1,222.2 L252.9,222.4 L254.8,222.5 L256.6,222.6 L258.5,222.8 L260.3,222.9 L262.1,223 L264,223.2 L265.8,223.3 L267.6,223.4 L269.5,223.6 L271.3,223.7 L273.1,223.8 L275,223.9 L276.8,224 L278.7,224.2 L280.5,224.3 L282.3,224.4 L284.2,224.5 L286,224.6 L287.8,224.8 L289.7,224.9 L291.5,225 L293.4,225.1 L295.2,225.2 L297,225.3 L298.9,225.4 L300.7,225.5 L302.5,225.6 L304.4,225.7 L306.2,225.9 L308,226 L309.9,226.1 L311.7,226.2 L313.6,226.3 L315.4,226.4 L317.2,226.5 L319.1,226.6 L320.9,226.7 L322.7,226.8 L324.6,226.9 L326.4,227 L328.3,227.1 L330.1,227.2 L331.9,227.3 L333.8,227.4 L335.6,227.4 L337.4,227.5 L339.3,227.6 L341.1,227.7 L343,227.8 L344.8,227.9 L346.6,228 L348.5,228.1 L350.3,228.2 L352.1,228.3 L354,228.3 L355.8,228.4 L357.6,228.5 L359.5,228.6 L361.3,228.7 L363.2,228.8 L365,228.9 L366.8,228.9 L368.7,229 L370.5,229.1 L372.3,229.2 L374.2,229.3 L376,229.4 L377.9,229.4 L379.7,229.5 L381.5,229.6 L383.4,229.7 L385.2,229.8 L387,229.8 L388.9,229.9 L390.7,230 L392.6,230.1 L394.4,230.1 L396.2,230.2 L398.1,230.3 L399.9,230.4 L401.7,230.4 L403.6,230.5 L405.4,230.6 L407.2,230.7 L409.1,230.7 L410.9,230.8 L412.8,230.9 L414.6,231 L416.4,231 L418.3,231.1 L420.1,231.2 L421.9,231.2 L423.8,231.3 L425.6,231.4 L427.5,231.5 L429.3,231.5 L431.1,231.6 L433,231.7 L434.8,231.7 L436.6,231.8 L438.5,231.9 L440.3,231.9 " fill="none"/></g>
<g clip-path="url(#plot_window)" stroke="rgb(0,100,0)"><path d="M74.75,57.5 L76.59,162.2 L78.42,172.1 L80.26,178.2 L82.1,182.7 L83.93,186.3 L85.77,189.3 L87.61,192 L89.44,194.4 L91.28,196.6 L93.12,198.6 L94.96,200.4 L96.79,202.2 L98.63,203.8 L100.5,205.4 L102.3,206.8 L104.1,208.2 L106,209.6 L107.8,210.9 L109.7,212.1 L111.5,213.4 L113.3,214.5 L115.2,215.7 L117,216.8 L118.8,217.8 L120.7,218.9 L122.5,219.9 L124.3,220.9 L126.2,221.8 L128,222.8 L129.9,223.7 L131.7,224.6 L133.5,225.5 L135.4,226.4 L137.2,227.2 L139,228 L140.9,228.9 L142.7,229.7 L144.6,230.5 L146.4,231.2 L148.2,232 L150.1,232.8 L151.9,233.5 L153.7,234.2 L155.6,234.9 L157.4,235.7 L159.3,236.4 L161.1,237 L162.9,237.7 L164.8,238.4 L166.6,239.1 L168.4,239.7 L170.3,240.4 L172.1,241 L173.9,241.6 L175.8,242.2 L177.6,242.9 L179.5,243.5 L181.3,244.1 L183.1,244.7 L185,245.2 L186.8,245.8 L188.6,246.4 L190.5,247 L192.3,247.5 L194.2,248.1 L196,248.6 L197.8,249.2 L199.7,249.7 L201.5,250.3 L203.3,250.8 L205.2,251.3 L207,251.8 L208.9,252.3 L210.7,252.9 L212.5,253.4 L214.4,253.9 L216.2,254.4 L218,254.9 L219.9,255.3 L221.7,255.8 L223.5,256.3 L225.4,256.8 L227.2,257.3 L229.1,257.7 L230.9,258.2 L232.7,258.6 L234.6,259.1 L236.4,259.6 L238.2,260 L240.1,260.5 L241.9,260.9 L243.8,261.3 L245.6,261.8 L247.4,262.2 L249.3,262.6 L251.1,263.1 L252.9,263.5 L254.8,263.9 L256.6,264.3 L258.5,264.7 L260.3,265.2 L262.1,265.6 L264,266 L265.8,266.4 L267.6,266.8 L269.5,267.2 L271.3,267.6 L273.1,268 L275,268.3 L276.8,268.7 L278.7,269.1 L280.5,269.5 L282.3,269.9 L284.2,270.3 L286,270.6 L287.8,271 L289.7,271.4 L291.5,271.8 L293.4,272.1 L295.2,272.5 L297,272.8 L298.9,273.2 L300.7,273.6 L302.5,273.9 L304.4,274.3 L306.2,274.6 L308,275 L309.9,275.3 L311.7,275.7 L313.6,276 L315.4,276.4 L317.2,276.7 L319.1,277 L320.9,277.4 L322.7,277.7 L324.6,278 L326.4,278.4 L328.3,278.7 L330.1,279 L331.9,279.3 L333.8,279.7 L335.6,280 L337.4,280.3 L339.3,280.6 L341.1,281 L343,281.3 L344.8,281.6 L346.6,281.9 L348.5,282.2 L350.3,282.5 L352.1,282.8 L354,283.1 L355.8,283.4 L357.6,283.7 L359.5,284 L361.3,284.3 L363.2,284.6 L365,284.9 L366.8,285.2 L368.7,285.5 L370.5,285.8 L372.3,286.1 L374.2,286.4 L376,286.7 L377.9,287 L379.7,287.3 L381.5,287.6 L383.4,287.8 L385.2,288.1 L387,288.4 L388.9,288.7 L390.7,289 L392.6,289.2 L394.4,289.5 L396.2,289.8 L398.1,290.1 L399.9,290.3 L401.7,290.6 L403.6,290.9 L405.4,291.1 L407.2,291.4 L409.1,291.7 L410.9,291.9 L412.8,292.2 L414.6,292.5 L416.4,292.7 L418.3,293 L420.1,293.3 L421.9,293.5 L423.8,293.8 L425.6,294 L427.5,294.3 L429.3,294.6 L431.1,294.8 L433,295.1 L434.8,295.3 L436.6,295.6 L438.5,295.8 L440.3,296.1 " fill="none"/></g>
<g clip-path="url(#plot_window)" stroke="rgb(255,140,0)"><path d="M74.75,57.5 L76.59,162.5 L78.42,172.6 L80.26,178.9 L82.1,183.6 L83.93,187.5 L85.77,190.8 L87.61,193.7 L89.44,196.3 L91.28,198.8 L93.12,201 L94.96,203.1 L96.79,205.1 L98.63,206.9 L100.5,208.7 L102.3,210.4 L104.1,212.1 L106,213.7 L107.8,215.2 L109.7,216.7 L111.5,218.1 L113.3,219.5 L115.2,220.9 L117,222.2 L118.8,223.5 L120.7,224.8 L122.5,226 L124.3,227.2 L126.2,228.4 L128,229.6 L129.9,230.7 L131.7,231.9 L133.5,233 L135.4,234.1 L137.2,235.1 L139,236.2 L140.9,237.2 L142.7,238.2 L144.6,239.2 L146.4,240.2 L148.2,241.2 L150.1,242.2 L151.9,243.1 L153.7,244.1 L155.6,245 L157.4,245.9 L159.3,246.8 L161.1,247.7 L162.9,248.6 L164.8,249.5 L166.6,250.4 L168.4,251.2 L170.3,252.1 L172.1,252.9 L173.9,253.8 L175.8,254.6 L177.6,255.4 L179.5,256.2 L181.3,257 L183.1,257.8 L185,258.6 L186.8,259.4 L188.6,260.2 L190.5,260.9 L192.3,261.7 L194.2,262.5 L196,263.2 L197.8,263.9 L199.7,264.7 L201.5,265.4 L203.3,266.1 L205.2,266.9 L207,267.6 L208.9,268.3 L210.7,269 L212.5,269.7 L214.4,270.4 L216.2,271.1 L218,271.7 L219.9,272.4 L221.7,273.1 L223.5,273.8 L225.4,274.4 L227.2,275.1 L229.1,275.8 L230.9,276.4 L232.7,277.1 L234.6,277.7 L236.4,278.3 L238.2,279 L240.1,279.6 L241.9,280.2 L243.8,280.8 L245.6,281.5 L247.4,282.1 L249.3,282.7 L251.1,283.3 L252.9,283.9 L254.8,284.5 L256.6,285.1 L258.5,285.7 L260.3,286.3 L262.1,286.9 L264,287.5 L265.8,288 L267.6,288.6 L269.5,289.2 L271.3,289.8 L273.1,290.3 L275,290.9 L276.8,291.5 L278.7,292 L280.5,292.6 L282.3,293.1 L284.2,293.7 L286,294.2 L287.8,294.8 L289.7,295.3 L291.5,295.9 L293.4,296.4 L295.2,296.9 L297,297.5 L298.9,298 L300.7,298.5 L302.5,299 L304.4,299.6 L306.2,300.1 L308,300.6 L309.9,301.1 L311.7,301.6 L313.6,302.1 L315.4,302.6 L317.2,303.1 L319.1,303.6 L320.9,304.1 L322.7,304.6 L324.6,305.1 L326.4,305.6 L328.3,306.1 L330.1,306.6 L331.9,307.1 L333.8,307.6 L335.6,308.1 L337.4,308.5 L339.3,309 L341.1,309.5 L343,310 L344.8,310.5 L346.6,310.9 L348.5,311.4 L350.3,311.9 L352.1,312.3 L354,312.8 L355.8,313.2 L357.6,313.7 L359.5,314.2 L361.3,314.6 L363.2,315.1 L365,315.5 L366.8,316 L368.7,316.4 L370.5,316.9 L372.3,317.3 L374.2,317.8 L376,318.2 L377.9,318.6 L379.7,319.1 L381.5,319.5 L383.4,320 L385.2,320.4 L387,320.8 L388.9,321.2 L390.7,321.7 L392.6,322.1 L394.4,322.5 L396.2,323 L398.1,323.4 L399.9,323.8 L401.7,324.2 L403.6,324.6 L405.4,325.1 L407.2,325.5 L409.1,325.9 L410.9,326.3 L412.8,326.7 L414.6,327.1 L416.4,327.5 L418.3,327.9 L420.1,328.3 L421.9,328.7 L423.8,329.1 L425.6,329.5 L427.5,329.9 L429.3,330.3 L431.1,330.7 L433,331.1 L434.8,331.5 L436.6,331.9 L438.5,332.3 L440.3,332.7 " fill="none"/></g>
</g>
<g id="plotPoints" clip-path="url(#plot_window)"><g stroke="rgb(0,0,0)" fill="rgb(0,0,0)"></g>
<g stroke="rgb(0,0,0)" fill="rgb(0,0,0)"></g>
<g stroke="rgb(0,0,0)" fill="rgb(0,0,0)"></g>
<g stroke="rgb(0,0,0)" fill="rgb(0,0,0)"></g>
</g>
<g id="limitPoints" stroke="rgb(119,136,153)" fill="rgb(250,235,215)"></g>
<g id="legendBackground" stroke="rgb(0,0,0)" fill="rgb(255,255,255)"><rect x="459.5" y="42" width="124.5" height="135"/><rect x="459.5" y="42" width="124.5" height="135"/></g>
<g id="legendPoints"><g stroke="rgb(0,0,139)" fill="rgb(0,0,0)" stroke-width="2"><line x1="482" y1="72" x2="504.5" y2="72"/></g>
<g stroke="rgb(139,0,0)" fill="rgb(0,0,0)" stroke-width="2"><line x1="482" y1="102" x2="504.5" y2="102"/></g>
<g stroke="rgb(0,100,0)" fill="rgb(0,0,0)" stroke-width="2"><line x1="482" y1="132" x2="504.5" y2="132"/></g>
<g stroke="rgb(255,140,0)" fill="rgb(0,0,0)" stroke-width="2"><line x1="482" y1="162" x2="504.5" y2="162"/></g>
</g>
<g id="legendText" fill="rgb(0,0,0)">
<text x="512" y="72" font-size="15" font-family="Verdana">a = 0.5</text>
<text x="512" y="102" font-size="15" font-family="Verdana">a = 1.0</text>
<text x="512" y="132" font-size="15" font-family="Verdana">a = 5.0</text>
<text x="512" y="162" font-size="15" font-family="Verdana">a = 10.0</text></g>
<g id="title" fill="rgb(0,0,0)">
<text x="300" y="32" text-anchor="middle" font-size="16" font-family="Verdana">beta</text></g>
</svg>
