<?xml version="1.0" encoding="UTF-8" standalone="no"?>
<svg width="600" height ="400" version="1.1"
xmlns:svg ="http://www.w3.org/2000/svg"
xmlns:rdf="http://www.w3.org/1999/02/22-rdf-syntax-ns#"
xmlns:cc="http://web.resource.org/cc/"
xmlns:dc="http://purl.org/dc/elements/1.1/"
xmlns ="http://www.w3.org/2000/svg"
>
<!-- SVG plot written using Boost.Plot program (Creator Jacob Voytko) --> 
<!-- Use, modification and distribution of Boost.Plot subject to the --> 
<!-- Boost Software License, Version 1.0.--> 
<!-- (See accompanying file LICENSE_1_0.txt --> 
<!-- or copy at http://www.boost.org/LICENSE_1_0.txt) --> 

<!-- SVG Plot Copyright John Maddock 2008 --> 
<meta name="copyright" content="John Maddock" />
<meta name="date" content="2008" />
<!-- Use, modification and distribution of this Scalable Vector Graphic file -->
<!-- are subject to the Boost Software License, Version 1.0. -->
<!-- (See accompanying file LICENSE_1_0.txt or copy at http://www.boost.org/LICENSE_1_0.txt) -->

<clipPath id="plot_window"><rect x="75.6" y="59" width="402.2" height="281"/></clipPath>
<g id="imageBackground" stroke="rgb(119,136,153)" fill="rgb(255,255,255)" stroke-width="2"><rect x="0" y="0" width="600" height="400"/></g>
<g id="plotBackground" stroke="rgb(119,136,153)" fill="rgb(255,255,255)" stroke-width="2"><rect x="74.6" y="58" width="404.2" height="283"/></g>
<g id="yMinorGrid" stroke="rgb(200,220,255)" stroke-width="0.5"></g>
<g id="yMajorGrid" stroke="rgb(200,220,255)" stroke-width="1"></g>
<g id="xMinorGrid" stroke="rgb(200,220,255)" stroke-width="0.5"></g>
<g id="xMajorGrid" stroke="rgb(200,220,255)" stroke-width="1"></g>
<g id="yAxis" stroke="rgb(0,0,0)" stroke-width="1"><line x1="272.7" y1="58" x2="272.7" y2="346"/><line x1="74.6" y1="58" x2="74.6" y2="341"/></g>
<g id="xAxis" stroke="rgb(0,0,0)" stroke-width="1"><line x1="69.6" y1="239" x2="478.8" y2="239"/><line x1="69.6" y1="341" x2="478.8" y2="341"/></g>
<g id="yMinorTicks" stroke="rgb(0,0,0)" stroke-width="1"><path d="M72.6,217.1 L74.6,217.1 M72.6,195.1 L74.6,195.1 M72.6,173.2 L74.6,173.2 M72.6,129.3 L74.6,129.3 M72.6,107.4 L74.6,107.4 M72.6,85.48 L74.6,85.48 M72.6,239 L74.6,239 M72.6,260.9 L74.6,260.9 M72.6,282.8 L74.6,282.8 M72.6,304.8 L74.6,304.8 M72.6,326.7 L74.6,326.7 " fill="none"/></g>
<g id="xMinorTicks" stroke="rgb(0,0,0)" stroke-width="1"><path d="M297.5,341 L297.5,343 M322.3,341 L322.3,343 M347,341 L347,343 M396.6,341 L396.6,343 M421.3,341 L421.3,343 M446.1,341 L446.1,343 M248,341 L248,343 M223.2,341 L223.2,343 M198.4,341 L198.4,343 M148.9,341 L148.9,343 M124.1,341 L124.1,343 M99.37,341 L99.37,343 " fill="none"/></g>
<g id="yMajorTicks" stroke="rgb(0,0,0)" stroke-width="2"><path d="M69.6,239 L74.6,239 M69.6,151.3 L74.6,151.3 M69.6,63.55 L74.6,63.55 M69.6,239 L74.6,239 M69.6,326.7 L74.6,326.7 " fill="none"/></g>
<g id="xMajorTicks" stroke="rgb(0,0,0)" stroke-width="2"><path d="M272.7,341 L272.7,346 M371.8,341 L371.8,346 M470.9,341 L470.9,346 M272.7,341 L272.7,346 M173.7,341 L173.7,346 M74.6,341 L74.6,346 " fill="none"/></g>
<g id="xTicksValues">
<text x="272.7" y="361.6" text-anchor="middle" font-size="12" font-family="Verdana">0</text>
<text x="371.8" y="361.6" text-anchor="middle" font-size="12" font-family="Verdana">10</text>
<text x="470.9" y="361.6" text-anchor="middle" font-size="12" font-family="Verdana">20</text>
<text x="272.7" y="361.6" text-anchor="middle" font-size="12" font-family="Verdana">0</text>
<text x="173.7" y="361.6" text-anchor="middle" font-size="12" font-family="Verdana">-10</text>
<text x="74.6" y="361.6" text-anchor="middle" font-size="12" font-family="Verdana">-20</text></g>
<g id="yTicksValues">
<text x="63.6" y="241.4" text-anchor="end" font-size="12" font-family="Verdana">0</text>
<text x="63.6" y="153.7" text-anchor="end" font-size="12" font-family="Verdana">0.5</text>
<text x="63.6" y="65.95" text-anchor="end" font-size="12" font-family="Verdana">1</text>
<text x="63.6" y="241.4" text-anchor="end" font-size="12" font-family="Verdana">0</text>
<text x="63.6" y="329.1" text-anchor="end" font-size="12" font-family="Verdana">-0.5</text></g>
<g id="yLabel">
<text x="24.9" y="199.5" text-anchor="middle" transform = "rotate(-90 24.9 199.5 )" font-size="14" font-family="Verdana">cyl_bessel_j(v, x)</text></g>
<g id="xLabel">
<text x="276.7" y="376.7" text-anchor="middle" font-size="14" font-family="Verdana">x</text></g>
<g id="plotLines" stroke-width="2"><g clip-path="url(#plot_window)" stroke="rgb(0,0,139)" stroke-width="1"><path d="M74.6,209.7 L76.58,207.9 L78.56,207.4 L80.54,208.1 L82.53,210.1 L84.51,213.3 L86.49,217.5 L88.47,222.6 L90.45,228.4 L92.43,234.8 L94.41,241.3 L96.4,247.9 L98.38,254.1 L100.4,259.9 L102.3,264.8 L104.3,268.8 L106.3,271.6 L108.3,273.2 L110.3,273.4 L112.2,272.2 L114.2,269.7 L116.2,265.9 L118.2,261 L120.2,255.1 L122.2,248.5 L124.1,241.5 L126.1,234.2 L128.1,227.1 L130.1,220.3 L132.1,214.2 L134,209 L136,204.9 L138,202.1 L140,200.8 L142,201 L143.9,202.7 L145.9,205.9 L147.9,210.5 L149.9,216.3 L151.9,223.1 L153.9,230.6 L155.8,238.6 L157.8,246.8 L159.8,254.8 L161.8,262.3 L163.8,269 L165.7,274.6 L167.7,278.9 L169.7,281.7 L171.7,282.8 L173.7,282.1 L175.6,279.7 L177.6,275.6 L179.6,270 L181.6,263 L183.6,254.8 L185.6,245.9 L187.5,236.4 L189.5,226.8 L191.5,217.5 L193.5,208.9 L195.5,201.2 L197.4,194.8 L199.4,190.1 L201.4,187.2 L203.4,186.3 L205.4,187.6 L207.4,190.9 L209.3,196.3 L211.3,203.6 L213.3,212.6 L215.3,222.9 L217.3,234.3 L219.2,246.2 L221.2,258.3 L223.2,270.1 L225.2,281.2 L227.2,290.9 L229.1,299 L231.1,305 L233.1,308.7 L235.1,309.6 L237.1,307.7 L239.1,302.9 L241,295.2 L243,284.6 L245,271.4 L247,256 L249,238.5 L250.9,219.6 L252.9,199.7 L254.9,179.3 L256.9,159.1 L258.9,139.5 L260.8,121.2 L262.8,104.7 L264.8,90.52 L266.8,78.99 L268.8,70.5 L270.8,65.3 L272.7,63.55 L274.7,65.3 L276.7,70.5 L278.7,78.99 L280.7,90.52 L282.6,104.7 L284.6,121.2 L286.6,139.5 L288.6,159.1 L290.6,179.3 L292.6,199.7 L294.5,219.6 L296.5,238.5 L298.5,256 L300.5,271.4 L302.5,284.6 L304.4,295.2 L306.4,302.9 L308.4,307.7 L310.4,309.6 L312.4,308.7 L314.3,305 L316.3,299 L318.3,290.9 L320.3,281.2 L322.3,270.1 L324.3,258.3 L326.2,246.2 L328.2,234.3 L330.2,222.9 L332.2,212.6 L334.2,203.6 L336.1,196.3 L338.1,190.9 L340.1,187.6 L342.1,186.3 L344.1,187.2 L346,190.1 L348,194.8 L350,201.2 L352,208.9 L354,217.5 L356,226.8 L357.9,236.4 L359.9,245.9 L361.9,254.8 L363.9,263 L365.9,270 L367.8,275.6 L369.8,279.7 L371.8,282.1 L373.8,282.8 L375.8,281.7 L377.7,278.9 L379.7,274.6 L381.7,269 L383.7,262.3 L385.7,254.8 L387.7,246.8 L389.6,238.6 L391.6,230.6 L393.6,223.1 L395.6,216.3 L397.6,210.5 L399.5,205.9 L401.5,202.7 L403.5,201 L405.5,200.8 L407.5,202.1 L409.5,204.9 L411.4,209 L413.4,214.2 L415.4,220.3 L417.4,227.1 L419.4,234.2 L421.3,241.5 L423.3,248.5 L425.3,255.1 L427.3,261 L429.3,265.9 L431.2,269.7 L433.2,272.2 L435.2,273.4 L437.2,273.2 L439.2,271.6 L441.2,268.8 L443.1,264.8 L445.1,259.9 L447.1,254.1 L449.1,247.9 L451.1,241.3 L453,234.8 L455,228.4 L457,222.6 L459,217.5 L461,213.3 L462.9,210.1 L464.9,208.1 L466.9,207.4 L468.9,207.9 L470.9,209.7 " fill="none"/></g>
<g clip-path="url(#plot_window)" stroke="rgb(139,0,0)" stroke-width="1"><path d="M74.6,250.7 L76.58,244.7 L78.56,238.5 L80.54,232.2 L82.53,226.1 L84.51,220.4 L86.49,215.5 L88.47,211.4 L90.45,208.4 L92.43,206.6 L94.41,206 L96.4,206.8 L98.38,208.8 L100.4,212.1 L102.3,216.5 L104.3,221.8 L106.3,227.9 L108.3,234.6 L110.3,241.4 L112.2,248.3 L114.2,254.8 L116.2,260.9 L118.2,266.1 L120.2,270.3 L122.2,273.3 L124.1,275 L126.1,275.2 L128.1,274 L130.1,271.4 L132.1,267.5 L134,262.4 L136,256.2 L138,249.3 L140,241.9 L142,234.2 L143.9,226.6 L145.9,219.4 L147.9,212.9 L149.9,207.3 L151.9,202.8 L153.9,199.8 L155.8,198.2 L157.8,198.3 L159.8,200 L161.8,203.2 L163.8,208 L165.7,214 L167.7,221.2 L169.7,229.3 L171.7,237.8 L173.7,246.6 L175.6,255.3 L177.6,263.5 L179.6,270.8 L181.6,277.1 L183.6,282 L185.6,285.3 L187.5,286.8 L189.5,286.5 L191.5,284.2 L193.5,280.1 L195.5,274.3 L197.4,266.9 L199.4,258.2 L201.4,248.5 L203.4,238.2 L205.4,227.5 L207.4,217.1 L209.3,207.1 L211.3,198.1 L213.3,190.4 L215.3,184.4 L217.3,180.3 L219.2,178.4 L221.2,178.8 L223.2,181.5 L225.2,186.6 L227.2,194 L229.1,203.4 L231.1,214.7 L233.1,227.4 L235.1,241.2 L237.1,255.7 L239.1,270.4 L241,284.8 L243,298.5 L245,310.9 L247,321.6 L249,330.2 L250.9,336.5 L252.9,340.2 L254.9,341 L256.9,339 L258.9,334.1 L260.8,326.4 L262.8,316.2 L264.8,303.7 L266.8,289.3 L268.8,273.4 L270.8,256.4 L272.7,239 L274.7,221.5 L276.7,204.6 L278.7,188.7 L280.7,174.3 L282.6,161.8 L284.6,151.6 L286.6,143.9 L288.6,139 L290.6,137 L292.6,137.8 L294.5,141.4 L296.5,147.7 L298.5,156.4 L300.5,167.1 L302.5,179.5 L304.4,193.1 L306.4,207.5 L308.4,222.2 L310.4,236.7 L312.4,250.6 L314.3,263.3 L316.3,274.6 L318.3,284 L320.3,291.3 L322.3,296.5 L324.3,299.2 L326.2,299.6 L328.2,297.6 L330.2,293.5 L332.2,287.5 L334.2,279.8 L336.1,270.8 L338.1,260.9 L340.1,250.4 L342.1,239.8 L344.1,229.5 L346,219.8 L348,211.1 L350,203.7 L352,197.8 L354,193.7 L356,191.5 L357.9,191.1 L359.9,192.7 L361.9,195.9 L363.9,200.8 L365.9,207.1 L367.8,214.5 L369.8,222.7 L371.8,231.4 L373.8,240.1 L375.8,248.7 L377.7,256.7 L379.7,263.9 L381.7,270 L383.7,274.7 L385.7,278 L387.7,279.7 L389.6,279.7 L391.6,278.2 L393.6,275.1 L395.6,270.7 L397.6,265.1 L399.5,258.5 L401.5,251.3 L403.5,243.7 L405.5,236.1 L407.5,228.6 L409.5,221.7 L411.4,215.6 L413.4,210.5 L415.4,206.5 L417.4,203.9 L419.4,202.7 L421.3,203 L423.3,204.7 L425.3,207.7 L427.3,211.9 L429.3,217.1 L431.2,223.1 L433.2,229.7 L435.2,236.5 L437.2,243.4 L439.2,250 L441.2,256.1 L443.1,261.5 L445.1,265.9 L447.1,269.1 L449.1,271.2 L451.1,272 L453,271.4 L455,269.6 L457,266.6 L459,262.5 L461,257.5 L462.9,251.9 L464.9,245.8 L466.9,239.5 L468.9,233.2 L470.9,227.3 " fill="none"/></g>
<g clip-path="url(#plot_window)" stroke="rgb(0,100,0)" stroke-width="1"><path d="M74.6,267.1 L76.58,269.5 L78.56,270.6 L80.54,270.5 L82.53,269.2 L84.51,266.7 L86.49,263 L88.47,258.3 L90.45,252.9 L92.43,246.8 L94.41,240.3 L96.4,233.7 L98.38,227.3 L100.4,221.2 L102.3,215.8 L104.3,211.2 L106.3,207.7 L108.3,205.3 L110.3,204.3 L112.2,204.6 L114.2,206.3 L116.2,209.3 L118.2,213.5 L120.2,218.8 L122.2,224.9 L124.1,231.7 L126.1,238.8 L128.1,246.1 L130.1,253.2 L132.1,259.8 L134,265.7 L136,270.6 L138,274.3 L140,276.7 L142,277.7 L143.9,277.2 L145.9,275.1 L147.9,271.7 L149.9,266.8 L151.9,260.8 L153.9,253.9 L155.8,246.2 L157.8,238.2 L159.8,230 L161.8,222 L163.8,214.6 L165.7,208 L167.7,202.4 L169.7,198.2 L171.7,195.4 L173.7,194.3 L175.6,194.9 L177.6,197.2 L179.6,201.2 L181.6,206.7 L183.6,213.6 L185.6,221.6 L187.5,230.4 L189.5,239.8 L191.5,249.4 L193.5,258.8 L195.5,267.7 L197.4,275.8 L199.4,282.7 L201.4,288.1 L203.4,291.9 L205.4,293.8 L207.4,293.7 L209.3,291.6 L211.3,287.6 L213.3,281.6 L215.3,273.9 L217.3,264.7 L219.2,254.2 L221.2,242.8 L223.2,230.8 L225.2,218.6 L227.2,206.6 L229.1,195.1 L231.1,184.5 L233.1,175.1 L235.1,167.2 L237.1,160.9 L239.1,156.6 L241,154.2 L243,153.7 L245,155.2 L247,158.5 L249,163.4 L250.9,169.7 L252.9,177.1 L254.9,185.3 L256.9,193.9 L258.9,202.6 L260.8,211 L262.8,218.8 L264.8,225.7 L266.8,231.3 L268.8,235.5 L270.8,238.1 L272.7,239 L274.7,238.1 L276.7,235.5 L278.7,231.3 L280.7,225.7 L282.6,218.8 L284.6,211 L286.6,202.6 L288.6,193.9 L290.6,185.3 L292.6,177.1 L294.5,169.7 L296.5,163.4 L298.5,158.5 L300.5,155.2 L302.5,153.7 L304.4,154.2 L306.4,156.6 L308.4,160.9 L310.4,167.2 L312.4,175.1 L314.3,184.5 L316.3,195.1 L318.3,206.6 L320.3,218.6 L322.3,230.8 L324.3,242.8 L326.2,254.2 L328.2,264.7 L330.2,273.9 L332.2,281.6 L334.2,287.6 L336.1,291.6 L338.1,293.7 L340.1,293.8 L342.1,291.9 L344.1,288.1 L346,282.7 L348,275.8 L350,267.7 L352,258.8 L354,249.4 L356,239.8 L357.9,230.4 L359.9,221.6 L361.9,213.6 L363.9,206.7 L365.9,201.2 L367.8,197.2 L369.8,194.9 L371.8,194.3 L373.8,195.4 L375.8,198.2 L377.7,202.4 L379.7,208 L381.7,214.6 L383.7,222 L385.7,230 L387.7,238.2 L389.6,246.2 L391.6,253.9 L393.6,260.8 L395.6,266.8 L397.6,271.7 L399.5,275.1 L401.5,277.2 L403.5,277.7 L405.5,276.7 L407.5,274.3 L409.5,270.6 L411.4,265.7 L413.4,259.8 L415.4,253.2 L417.4,246.1 L419.4,238.8 L421.3,231.7 L423.3,224.9 L425.3,218.8 L427.3,213.5 L429.3,209.3 L431.2,206.3 L433.2,204.6 L435.2,204.3 L437.2,205.3 L439.2,207.7 L441.2,211.2 L443.1,215.8 L445.1,221.2 L447.1,227.3 L449.1,233.7 L451.1,240.3 L453,246.8 L455,252.9 L457,258.3 L459,263 L461,266.7 L462.9,269.2 L464.9,270.5 L466.9,270.6 L468.9,269.5 L470.9,267.1 " fill="none"/></g>
<g clip-path="url(#plot_window)" stroke="rgb(255,140,0)" stroke-width="1"><path d="M74.6,221.6 L76.58,227.1 L78.56,233 L80.54,239.3 L82.53,245.6 L84.51,251.7 L86.49,257.4 L88.47,262.4 L90.45,266.6 L92.43,269.7 L94.41,271.7 L96.4,272.4 L98.38,271.8 L100.4,269.9 L102.3,266.9 L104.3,262.7 L106.3,257.5 L108.3,251.5 L110.3,245 L112.2,238.2 L114.2,231.3 L116.2,224.6 L118.2,218.4 L120.2,212.9 L122.2,208.4 L124.1,204.9 L126.1,202.8 L128.1,202 L130.1,202.6 L132.1,204.6 L134,208 L136,212.6 L138,218.2 L140,224.8 L142,232 L143.9,239.6 L145.9,247.2 L147.9,254.7 L149.9,261.7 L151.9,268 L153.9,273.2 L155.8,277.3 L157.8,280 L159.8,281.2 L161.8,280.8 L163.8,278.9 L165.7,275.4 L167.7,270.5 L169.7,264.4 L171.7,257.2 L173.7,249.2 L175.6,240.7 L177.6,231.9 L179.6,223.2 L181.6,214.9 L183.6,207.2 L185.6,200.6 L187.5,195.1 L189.5,191.1 L191.5,188.6 L193.5,187.9 L195.5,188.9 L197.4,191.7 L199.4,196.1 L201.4,202.2 L203.4,209.6 L205.4,218.2 L207.4,227.7 L209.3,237.9 L211.3,248.5 L213.3,259.1 L215.3,269.5 L217.3,279.3 L219.2,288.3 L221.2,296.3 L223.2,303 L225.2,308.3 L227.2,312.2 L229.1,314.4 L231.1,315.2 L233.1,314.4 L235.1,312.3 L237.1,308.9 L239.1,304.5 L241,299.2 L243,293.2 L245,286.8 L247,280.3 L249,273.7 L250.9,267.5 L252.9,261.6 L254.9,256.3 L256.9,251.7 L258.9,247.8 L260.8,244.7 L262.8,242.4 L264.8,240.8 L266.8,239.8 L268.8,239.2 L270.8,239 L272.7,239 L274.7,239 L276.7,238.8 L278.7,238.2 L280.7,237.2 L282.6,235.6 L284.6,233.2 L286.6,230.1 L288.6,226.3 L290.6,221.6 L292.6,216.4 L294.5,210.5 L296.5,204.2 L298.5,197.7 L300.5,191.1 L302.5,184.8 L304.4,178.8 L306.4,173.5 L308.4,169 L310.4,165.6 L312.4,163.5 L314.3,162.8 L316.3,163.5 L318.3,165.8 L320.3,169.6 L322.3,175 L324.3,181.7 L326.2,189.7 L328.2,198.7 L330.2,208.5 L332.2,218.8 L334.2,229.5 L336.1,240 L338.1,250.2 L340.1,259.8 L342.1,268.4 L344.1,275.8 L346,281.8 L348,286.3 L350,289 L352,290.1 L354,289.3 L356,286.9 L357.9,282.9 L359.9,277.4 L361.9,270.7 L363.9,263.1 L365.9,254.8 L367.8,246.1 L369.8,237.3 L371.8,228.7 L373.8,220.7 L375.8,213.5 L377.7,207.4 L379.7,202.5 L381.7,199.1 L383.7,197.2 L385.7,196.8 L387.7,198 L389.6,200.7 L391.6,204.7 L393.6,210 L395.6,216.3 L397.6,223.3 L399.5,230.7 L401.5,238.4 L403.5,246 L405.5,253.2 L407.5,259.7 L409.5,265.4 L411.4,270 L413.4,273.4 L415.4,275.4 L417.4,276 L419.4,275.2 L421.3,273 L423.3,269.6 L425.3,265 L427.3,259.5 L429.3,253.3 L431.2,246.7 L433.2,239.8 L435.2,233 L437.2,226.4 L439.2,220.5 L441.2,215.3 L443.1,211.1 L445.1,208 L447.1,206.2 L449.1,205.6 L451.1,206.3 L453,208.3 L455,211.4 L457,215.6 L459,220.6 L461,226.3 L462.9,232.4 L464.9,238.7 L466.9,244.9 L468.9,250.9 L470.9,256.3 " fill="none"/></g>
<g clip-path="url(#plot_window)" stroke="rgb(127,255,0)" stroke-width="1"><path d="M74.6,216.1 L76.58,212.1 L78.56,209.2 L80.54,207.3 L82.53,206.7 L84.51,207.3 L86.49,209.1 L88.47,212.1 L90.45,216.1 L92.43,221.1 L94.41,226.8 L96.4,233 L98.38,239.5 L100.4,246.1 L102.3,252.5 L104.3,258.4 L106.3,263.7 L108.3,268.1 L110.3,271.5 L112.2,273.6 L114.2,274.5 L116.2,274.1 L118.2,272.4 L120.2,269.3 L122.2,265.1 L124.1,259.9 L126.1,253.8 L128.1,247.1 L130.1,240 L132.1,232.7 L134,225.6 L136,218.9 L138,212.8 L140,207.6 L142,203.4 L143.9,200.5 L145.9,199 L147.9,198.8 L149.9,200.1 L151.9,202.9 L153.9,207 L155.8,212.3 L157.8,218.6 L159.8,225.8 L161.8,233.5 L163.8,241.6 L165.7,249.8 L167.7,257.7 L169.7,265.1 L171.7,271.8 L173.7,277.5 L175.6,282 L177.6,285.2 L179.6,286.8 L181.6,287 L183.6,285.6 L185.6,282.6 L187.5,278.2 L189.5,272.4 L191.5,265.4 L193.5,257.5 L195.5,248.8 L197.4,239.5 L199.4,230 L201.4,220.5 L203.4,211.3 L205.4,202.5 L207.4,194.5 L209.3,187.3 L211.3,181.2 L213.3,176.2 L215.3,172.5 L217.3,170.1 L219.2,169 L221.2,169.1 L223.2,170.3 L225.2,172.7 L227.2,175.9 L229.1,180 L231.1,184.6 L233.1,189.7 L235.1,195 L237.1,200.4 L239.1,205.8 L241,211 L243,215.8 L245,220.3 L247,224.2 L249,227.7 L250.9,230.6 L252.9,233 L254.9,234.9 L256.9,236.4 L258.9,237.4 L260.8,238.1 L262.8,238.5 L264.8,238.8 L266.8,238.9 L268.8,239 L270.8,239 L272.7,239 L274.7,239 L276.7,239 L278.7,238.9 L280.7,238.8 L282.6,238.5 L284.6,238.1 L286.6,237.4 L288.6,236.4 L290.6,234.9 L292.6,233 L294.5,230.6 L296.5,227.7 L298.5,224.2 L300.5,220.3 L302.5,215.8 L304.4,211 L306.4,205.8 L308.4,200.4 L310.4,195 L312.4,189.7 L314.3,184.6 L316.3,180 L318.3,175.9 L320.3,172.7 L322.3,170.3 L324.3,169.1 L326.2,169 L328.2,170.1 L330.2,172.5 L332.2,176.2 L334.2,181.2 L336.1,187.3 L338.1,194.5 L340.1,202.5 L342.1,211.3 L344.1,220.5 L346,230 L348,239.5 L350,248.8 L352,257.5 L354,265.4 L356,272.4 L357.9,278.2 L359.9,282.6 L361.9,285.6 L363.9,287 L365.9,286.8 L367.8,285.2 L369.8,282 L371.8,277.5 L373.8,271.8 L375.8,265.1 L377.7,257.7 L379.7,249.8 L381.7,241.6 L383.7,233.5 L385.7,225.8 L387.7,218.6 L389.6,212.3 L391.6,207 L393.6,202.9 L395.6,200.1 L397.6,198.8 L399.5,199 L401.5,200.5 L403.5,203.4 L405.5,207.6 L407.5,212.8 L409.5,218.9 L411.4,225.6 L413.4,232.7 L415.4,240 L417.4,247.1 L419.4,253.8 L421.3,259.9 L423.3,265.1 L425.3,269.3 L427.3,272.4 L429.3,274.1 L431.2,274.5 L433.2,273.6 L435.2,271.5 L437.2,268.1 L439.2,263.7 L441.2,258.4 L443.1,252.5 L445.1,246.1 L447.1,239.5 L449.1,233 L451.1,226.8 L453,221.1 L455,216.1 L457,212.1 L459,209.1 L461,207.3 L462.9,206.7 L464.9,207.3 L466.9,209.2 L468.9,212.1 L470.9,216.1 " fill="none"/></g>
</g>
<g id="plotPoints" clip-path="url(#plot_window)"></g>
<g id="legendBackground" stroke="rgb(119,136,153)" fill="rgb(255,255,255)" stroke-width="1"><rect x="492.8" y="58" width="99.2" height="154"/><rect x="492.8" y="58" width="99.2" height="154"/></g>
<g id="legendPoints"><g stroke="rgb(0,0,139)" fill="rgb(255,255,255)" stroke-width="1"><line x1="506.8" y1="86" x2="520.8" y2="86"/></g>
<g stroke="rgb(139,0,0)" fill="rgb(255,255,255)" stroke-width="1"><line x1="506.8" y1="114" x2="520.8" y2="114"/></g>
<g stroke="rgb(0,100,0)" fill="rgb(255,255,255)" stroke-width="1"><line x1="506.8" y1="142" x2="520.8" y2="142"/></g>
<g stroke="rgb(255,140,0)" fill="rgb(255,255,255)" stroke-width="1"><line x1="506.8" y1="170" x2="520.8" y2="170"/></g>
<g stroke="rgb(127,255,0)" fill="rgb(255,255,255)" stroke-width="1"><line x1="506.8" y1="198" x2="520.8" y2="198"/></g>
</g>
<g id="legendText">
<text x="527.8" y="86" font-size="14" font-family="Verdana">v = 0</text>
<text x="527.8" y="114" font-size="14" font-family="Verdana">v = 1</text>
<text x="527.8" y="142" font-size="14" font-family="Verdana">v = 2</text>
<text x="527.8" y="170" font-size="14" font-family="Verdana">v = 3</text>
<text x="527.8" y="198" font-size="14" font-family="Verdana">v = 4</text></g>
<g id="title">
<text x="300" y="40" text-anchor="middle" font-size="20" font-family="Verdana">Bessel J</text></g>
<g id="plotXValues"></g>
<g id="plotYValues"></g>
</svg>
