<?xml version="1.0" encoding="UTF-8" standalone="no"?>
<svg width="500" height ="400" version="1.1"
xmlns:svg ="http://www.w3.org/2000/svg"
xmlns:rdf="http://www.w3.org/1999/02/22-rdf-syntax-ns#"
xmlns:cc="http://web.resource.org/cc/"
xmlns:dc="http://purl.org/dc/elements/1.1/"
xmlns ="http://www.w3.org/2000/svg"
>
<!-- SVG plot written using Boost.Plot program (Creator Jacob Voytko) --> 
<!-- Use, modification and distribution of Boost.Plot subject to the --> 
<!-- Boost Software License, Version 1.0.--> 
<!-- (See accompanying file LICENSE_1_0.txt --> 
<!-- or copy at http://www.boost.org/LICENSE_1_0.txt) --> 

<clipPath id="plot_window"><rect x="75.6" y="54" width="247" height="286"/></clipPath>
<g id="imageBackground" stroke="rgb(0,0,0)" fill="rgb(255,255,255)" stroke-width="2"><rect x="0" y="0" width="500" height="400"/></g>
<g id="plotBackground" stroke="rgb(119,136,153)" fill="rgb(255,255,255)" stroke-width="2"><rect x="74.6" y="53" width="249" height="288"/></g>
<g id="yMinorGrid" stroke="rgb(200,220,255)" stroke-width="0.5"></g>
<g id="yMajorGrid" stroke="rgb(200,220,255)" stroke-width="1"></g>
<g id="xMinorGrid" stroke="rgb(200,220,255)" stroke-width="0.5"></g>
<g id="xMajorGrid" stroke="rgb(200,220,255)" stroke-width="1"></g>
<g id="yAxis" stroke="rgb(0,0,0)" stroke-width="1"><line x1="74.6" y1="53" x2="74.6" y2="346"/><line x1="74.6" y1="53" x2="74.6" y2="341"/></g>
<g id="xAxis" stroke="rgb(0,0,0)" stroke-width="1"><line x1="69.6" y1="341" x2="324" y2="341"/><line x1="69.6" y1="341" x2="324" y2="341"/></g>
<g id="yMinorTicks" stroke="rgb(0,0,0)" stroke-width="1"><path d="M72.6,329 L74.6,329 M72.6,318 L74.6,318 M72.6,306 L74.6,306 M72.6,295 L74.6,295 M72.6,272 L74.6,272 M72.6,260 L74.6,260 M72.6,249 L74.6,249 M72.6,237 L74.6,237 M72.6,214 L74.6,214 M72.6,203 L74.6,203 M72.6,191 L74.6,191 M72.6,180 L74.6,180 M72.6,157 L74.6,157 M72.6,145 L74.6,145 M72.6,134 L74.6,134 M72.6,122 L74.6,122 M72.6,99.1 L74.6,99.1 M72.6,87.6 L74.6,87.6 M72.6,76 L74.6,76 M72.6,64.5 L74.6,64.5 M72.6,341 L74.6,341 " fill="none"/></g>
<g id="xMinorTicks" stroke="rgb(0,0,0)" stroke-width="1"><path d="M90.2,341 L90.2,343 M106,341 L106,343 M121,341 L121,343 M137,341 L137,343 M168,341 L168,343 M184,341 L184,343 M199,341 L199,343 M215,341 L215,343 M246,341 L246,343 M262,341 L262,343 M277,341 L277,343 M293,341 L293,343 M324,341 L324,343 " fill="none"/></g>
<g id="yMajorTicks" stroke="rgb(0,0,0)" stroke-width="2"><path d="M69.6,341 L74.6,341 M69.6,283 L74.6,283 M69.6,226 L74.6,226 M69.6,168 L74.6,168 M69.6,111 L74.6,111 M69.6,53 L74.6,53 M69.6,341 L74.6,341 " fill="none"/></g>
<g id="xMajorTicks" stroke="rgb(0,0,0)" stroke-width="2"><path d="M74.6,341 L74.6,346 M153,341 L153,346 M230,341 L230,346 M308,341 L308,346 M74.6,341 L74.6,346 " fill="none"/></g>
<g id="xTicksValues">
<text x="74.6" y="362" text-anchor="middle" font-size="12" font-family="Verdana">0</text>
<text x="153" y="362" text-anchor="middle" font-size="12" font-family="Verdana">50</text>
<text x="230" y="362" text-anchor="middle" font-size="12" font-family="Verdana">100</text>
<text x="308" y="362" text-anchor="middle" font-size="12" font-family="Verdana">150</text>
<text x="74.6" y="362" text-anchor="middle" font-size="12" font-family="Verdana">0</text></g>
<g id="yTicksValues">
<text x="63.6" y="343" text-anchor="end" font-size="12" font-family="Verdana">0</text>
<text x="63.6" y="286" text-anchor="end" font-size="12" font-family="Verdana">1000</text>
<text x="63.6" y="228" text-anchor="end" font-size="12" font-family="Verdana">2000</text>
<text x="63.6" y="171" text-anchor="end" font-size="12" font-family="Verdana">3000</text>
<text x="63.6" y="113" text-anchor="end" font-size="12" font-family="Verdana">4000</text>
<text x="63.6" y="55.4" text-anchor="end" font-size="12" font-family="Verdana">5000</text>
<text x="63.6" y="343" text-anchor="end" font-size="12" font-family="Verdana">0</text></g>
<g id="yLabel">
<text x="24.9" y="197" text-anchor="middle" transform = "rotate(-90 24.9 197 )" font-size="14" font-family="Verdana">thousands of people per one minute interval</text></g>
<g id="xLabel">
<text x="199" y="377" text-anchor="middle" font-size="14" font-family="Verdana">journey time (min)</text></g>
<g id="plotPoints" clip-path="url(#plot_window)"><g stroke="rgb(0,0,255)" fill="rgb(173,216,230)" stroke-width="2"><path d="M74.6,341 L74.6,318 L82.4,318 L82.4,341 ZM82.4,341 L82.4,283 L90.2,283 L90.2,341 ZM90.2,341 L90.2,226 L98,226 L98,341 ZM98,341 L98,214 L106,214 L106,341 ZM106,341 L106,203 L114,203 L114,341 ZM114,341 L114,191 L121,191 L121,341 ZM121,341 L121,168 L129,168 L129,341 ZM129,341 L129,157 L137,157 L137,341 ZM137,341 L137,134 L145,134 L145,341 ZM145,341 L145,295 L168,295 L168,341 ZM168,341 L168,320 L215,320 L215,341 ZM215,341 L215,331 L308,331 L308,341 Z" fill="rgb(173,216,230)"/></g>
</g>
<g id="legendBackground" stroke="rgb(255,255,0)" fill="rgb(255,255,255)" stroke-width="1"><rect x="338" y="53" width="154" height="42"/><rect x="338" y="53" width="154" height="42"/></g>
<g id="legendPoints"><g stroke="rgb(0,0,0)" fill="rgb(255,255,255)" stroke-width="2"><line x1="352" y1="81" x2="366" y2="81"/></g>
</g>
<g id="legendText">
<text x="373" y="81" font-size="14" font-family="Verdana">2050 times? </text></g>
<g id="title">
<text x="250" y="36" text-anchor="middle" font-size="18" font-family="Verdana">US 2000 Census Journey Times</text></g>
</svg>
