<?xml version="1.0" encoding="UTF-8" standalone="no"?>
<svg width="750" height ="400" version="1.1"
xmlns:svg ="http://www.w3.org/2000/svg"
xmlns:rdf="http://www.w3.org/1999/02/22-rdf-syntax-ns#"
xmlns:cc="http://web.resource.org/cc/"
xmlns:dc="http://purl.org/dc/elements/1.1/"
xmlns ="http://www.w3.org/2000/svg"
>
<!-- SVG plot written using Boost.Plot program (Creator Jacob Voytko) --> 
<!-- Use, modification and distribution of Boost.Plot subject to the --> 
<!-- Boost Software License, Version 1.0.--> 
<!-- (See accompanying file LICENSE_1_0.txt --> 
<!-- or copy at http://www.boost.org/LICENSE_1_0.txt) --> 

<clipPath id="plot_window"><rect x="67.2" y="59" width="486" height="281"/></clipPath>
<g id="imageBackground" stroke="rgb(119,136,153)" fill="rgb(255,255,255)" stroke-width="2"><rect x="0" y="0" width="750" height="400"/></g>
<g id="plotBackground" stroke="rgb(119,136,153)" fill="rgb(255,255,255)" stroke-width="2"><rect x="66.2" y="58" width="488" height="283"/></g>
<g id="yMinorGrid" stroke="rgb(200,220,255)" stroke-width="0.5"></g>
<g id="yMajorGrid" stroke="rgb(200,220,255)" stroke-width="1"></g>
<g id="xMinorGrid" stroke="rgb(200,220,255)" stroke-width="0.5"></g>
<g id="xMajorGrid" stroke="rgb(200,220,255)" stroke-width="1"></g>
<g id="yAxis" stroke="rgb(0,0,0)" stroke-width="1"><line x1="310.2" y1="58" x2="310.2" y2="346"/><line x1="66.2" y1="58" x2="66.2" y2="341"/></g>
<g id="xAxis" stroke="rgb(0,0,0)" stroke-width="1"><line x1="61.2" y1="341" x2="554.2" y2="341"/><line x1="61.2" y1="341" x2="554.2" y2="341"/></g>
<g id="yMinorTicks" stroke="rgb(0,0,0)" stroke-width="1"><path d="M64.2,334.6 L66.2,334.6 M64.2,328.1 L66.2,328.1 M64.2,321.7 L66.2,321.7 M64.2,315.2 L66.2,315.2 M64.2,302.3 L66.2,302.3 M64.2,295.9 L66.2,295.9 M64.2,289.4 L66.2,289.4 M64.2,283 L66.2,283 M64.2,270.1 L66.2,270.1 M64.2,263.6 L66.2,263.6 M64.2,257.2 L66.2,257.2 M64.2,250.7 L66.2,250.7 M64.2,237.8 L66.2,237.8 M64.2,231.4 L66.2,231.4 M64.2,224.9 L66.2,224.9 M64.2,218.5 L66.2,218.5 M64.2,205.6 L66.2,205.6 M64.2,199.1 L66.2,199.1 M64.2,192.7 L66.2,192.7 M64.2,186.2 L66.2,186.2 M64.2,173.3 L66.2,173.3 M64.2,166.9 L66.2,166.9 M64.2,160.4 L66.2,160.4 M64.2,154 L66.2,154 M64.2,141.1 L66.2,141.1 M64.2,134.6 L66.2,134.6 M64.2,128.2 L66.2,128.2 M64.2,121.7 L66.2,121.7 M64.2,108.8 L66.2,108.8 M64.2,102.4 L66.2,102.4 M64.2,95.94 L66.2,95.94 M64.2,89.49 L66.2,89.49 M64.2,76.6 L66.2,76.6 M64.2,70.15 L66.2,70.15 M64.2,63.7 L66.2,63.7 M64.2,341 L66.2,341 " fill="none"/></g>
<g id="xMinorTicks" stroke="rgb(0,0,0)" stroke-width="1"><path d="M320.2,341 L320.2,343 M330.2,341 L330.2,343 M340.1,341 L340.1,343 M350.1,341 L350.1,343 M370,341 L370,343 M380,341 L380,343 M390,341 L390,343 M399.9,341 L399.9,343 M419.9,341 L419.9,343 M429.9,341 L429.9,343 M439.8,341 L439.8,343 M449.8,341 L449.8,343 M469.7,341 L469.7,343 M479.7,341 L479.7,343 M489.7,341 L489.7,343 M499.6,341 L499.6,343 M519.6,341 L519.6,343 M529.5,341 L529.5,343 M539.5,341 L539.5,343 M549.5,341 L549.5,343 M300.3,341 L300.3,343 M290.3,341 L290.3,343 M280.3,341 L280.3,343 M270.3,341 L270.3,343 M250.4,341 L250.4,343 M240.4,341 L240.4,343 M230.5,341 L230.5,343 M220.5,341 L220.5,343 M200.6,341 L200.6,343 M190.6,341 L190.6,343 M180.6,341 L180.6,343 M170.7,341 L170.7,343 M150.7,341 L150.7,343 M140.7,341 L140.7,343 M130.8,341 L130.8,343 M120.8,341 L120.8,343 M100.9,341 L100.9,343 M90.9,341 L90.9,343 M80.93,341 L80.93,343 M70.96,341 L70.96,343 " fill="none"/></g>
<g id="yMajorTicks" stroke="rgb(0,0,0)" stroke-width="2"><path d="M61.2,341 L66.2,341 M61.2,308.8 L66.2,308.8 M61.2,276.5 L66.2,276.5 M61.2,244.3 L66.2,244.3 M61.2,212 L66.2,212 M61.2,179.8 L66.2,179.8 M61.2,147.5 L66.2,147.5 M61.2,115.3 L66.2,115.3 M61.2,83.05 L66.2,83.05 M61.2,341 L66.2,341 " fill="none"/></g>
<g id="xMajorTicks" stroke="rgb(0,0,0)" stroke-width="2"><path d="M310.2,341 L310.2,346 M360.1,341 L360.1,346 M409.9,341 L409.9,346 M459.8,341 L459.8,346 M509.6,341 L509.6,346 M310.2,341 L310.2,346 M260.4,341 L260.4,346 M210.5,341 L210.5,346 M160.7,341 L160.7,346 M110.8,341 L110.8,346 " fill="none"/></g>
<g id="xTicksValues">
<text x="310.2" y="361.6" text-anchor="middle" font-size="12" font-family="Verdana">0</text>
<text x="360.1" y="361.6" text-anchor="middle" font-size="12" font-family="Verdana">1</text>
<text x="409.9" y="361.6" text-anchor="middle" font-size="12" font-family="Verdana">2</text>
<text x="459.8" y="361.6" text-anchor="middle" font-size="12" font-family="Verdana">3</text>
<text x="509.6" y="361.6" text-anchor="middle" font-size="12" font-family="Verdana">4</text>
<text x="310.2" y="361.6" text-anchor="middle" font-size="12" font-family="Verdana">0</text>
<text x="260.4" y="361.6" text-anchor="middle" font-size="12" font-family="Verdana">-1</text>
<text x="210.5" y="361.6" text-anchor="middle" font-size="12" font-family="Verdana">-2</text>
<text x="160.7" y="361.6" text-anchor="middle" font-size="12" font-family="Verdana">-3</text>
<text x="110.8" y="361.6" text-anchor="middle" font-size="12" font-family="Verdana">-4</text></g>
<g id="yTicksValues">
<text x="55.2" y="343.4" text-anchor="end" font-size="12" font-family="Verdana">0</text>
<text x="55.2" y="311.2" text-anchor="end" font-size="12" font-family="Verdana">0.1</text>
<text x="55.2" y="278.9" text-anchor="end" font-size="12" font-family="Verdana">0.2</text>
<text x="55.2" y="246.7" text-anchor="end" font-size="12" font-family="Verdana">0.3</text>
<text x="55.2" y="214.4" text-anchor="end" font-size="12" font-family="Verdana">0.4</text>
<text x="55.2" y="182.2" text-anchor="end" font-size="12" font-family="Verdana">0.5</text>
<text x="55.2" y="149.9" text-anchor="end" font-size="12" font-family="Verdana">0.6</text>
<text x="55.2" y="117.7" text-anchor="end" font-size="12" font-family="Verdana">0.7</text>
<text x="55.2" y="85.45" text-anchor="end" font-size="12" font-family="Verdana">0.8</text>
<text x="55.2" y="343.4" text-anchor="end" font-size="12" font-family="Verdana">0</text></g>
<g id="yLabel">
<text x="24.9" y="199.5" text-anchor="middle" transform = "rotate(-90 24.9 199.5 )" font-size="14" font-family="Verdana">Probability</text></g>
<g id="xLabel">
<text x="310.2" y="376.7" text-anchor="middle" font-size="14" font-family="Verdana">Random Variable</text></g>
<g id="plotLines" stroke-width="2"><g clip-path="url(#plot_window)" stroke="rgb(0,0,139)" stroke-width="1"><path d="M66.2,341 L68.64,341 L71.08,341 L73.52,341 L75.96,341 L78.4,341 L80.84,341 L83.28,341 L85.72,341 L88.16,341 L90.6,341 L93.04,341 L95.48,341 L97.92,341 L100.4,341 L102.8,341 L105.2,341 L107.7,341 L110.1,341 L112.6,341 L115,340.9 L117.4,340.9 L119.9,340.9 L122.3,340.9 L124.8,340.9 L127.2,340.8 L129.6,340.8 L132.1,340.8 L134.5,340.7 L137,340.7 L139.4,340.6 L141.8,340.6 L144.3,340.5 L146.7,340.4 L149.2,340.3 L151.6,340.2 L154,340.1 L156.5,339.9 L158.9,339.7 L161.4,339.5 L163.8,339.3 L166.2,339 L168.7,338.7 L171.1,338.4 L173.6,338 L176,337.6 L178.4,337.1 L180.9,336.6 L183.3,336 L185.8,335.3 L188.2,334.6 L190.7,333.8 L193.1,332.9 L195.5,331.9 L198,330.8 L200.4,329.6 L202.9,328.4 L205.3,327 L207.7,325.5 L210.2,323.8 L212.6,322.1 L215.1,320.2 L217.5,318.2 L219.9,316.1 L222.4,313.8 L224.8,311.4 L227.3,308.8 L229.7,306.1 L232.1,303.3 L234.6,300.3 L237,297.3 L239.5,294 L241.9,290.7 L244.3,287.3 L246.8,283.8 L249.2,280.2 L251.7,276.5 L254.1,272.8 L256.5,269 L259,265.2 L261.4,261.4 L263.9,257.5 L266.3,253.8 L268.7,250 L271.2,246.4 L273.6,242.8 L276.1,239.3 L278.5,235.9 L280.9,232.8 L283.4,229.7 L285.8,226.9 L288.3,224.3 L290.7,221.9 L293.1,219.7 L295.6,217.8 L298,216.2 L300.5,214.8 L302.9,213.7 L305.3,213 L307.8,212.5 L310.2,212.4 L312.7,212.5 L315.1,213 L317.5,213.7 L320,214.8 L322.4,216.2 L324.9,217.8 L327.3,219.7 L329.7,221.9 L332.2,224.3 L334.6,226.9 L337.1,229.7 L339.5,232.7 L341.9,235.9 L344.4,239.3 L346.8,242.8 L349.3,246.3 L351.7,250 L354.1,253.7 L356.6,257.5 L359,261.3 L361.5,265.2 L363.9,269 L366.3,272.8 L368.8,276.5 L371.2,280.2 L373.7,283.8 L376.1,287.3 L378.5,290.7 L381,294 L383.4,297.2 L385.9,300.3 L388.3,303.3 L390.7,306.1 L393.2,308.8 L395.6,311.4 L398.1,313.8 L400.5,316.1 L402.9,318.2 L405.4,320.2 L407.8,322.1 L410.3,323.8 L412.7,325.5 L415.1,327 L417.6,328.4 L420,329.6 L422.5,330.8 L424.9,331.9 L427.3,332.9 L429.8,333.8 L432.2,334.6 L434.7,335.3 L437.1,336 L439.6,336.6 L442,337.1 L444.4,337.6 L446.9,338 L449.3,338.4 L451.8,338.7 L454.2,339 L456.6,339.3 L459.1,339.5 L461.5,339.7 L464,339.9 L466.4,340 L468.8,340.2 L471.3,340.3 L473.7,340.4 L476.2,340.5 L478.6,340.6 L481,340.6 L483.5,340.7 L485.9,340.7 L488.4,340.8 L490.8,340.8 L493.2,340.8 L495.7,340.9 L498.1,340.9 L500.6,340.9 L503,340.9 L505.4,340.9 L507.9,341 L510.3,341 L512.8,341 L515.2,341 L517.6,341 L520.1,341 L522.5,341 L525,341 L527.4,341 L529.8,341 L532.3,341 L534.7,341 L537.2,341 L539.6,341 L542,341 L544.5,341 L546.9,341 L549.4,341 L551.8,341 L554.2,341 " fill="none"/></g>
<g clip-path="url(#plot_window)" stroke="rgb(139,0,0)" stroke-width="1"><path d="M66.2,341 L68.64,341 L71.08,341 L73.52,341 L75.96,341 L78.4,341 L80.84,341 L83.28,341 L85.72,341 L88.16,341 L90.6,341 L93.04,341 L95.48,341 L97.92,341 L100.4,341 L102.8,341 L105.2,341 L107.7,341 L110.1,341 L112.6,341 L115,341 L117.4,341 L119.9,341 L122.3,341 L124.8,341 L127.2,341 L129.6,341 L132.1,341 L134.5,341 L137,341 L139.4,341 L141.8,341 L144.3,341 L146.7,341 L149.2,341 L151.6,341 L154,341 L156.5,341 L158.9,341 L161.4,341 L163.8,341 L166.2,341 L168.7,341 L171.1,341 L173.6,341 L176,341 L178.4,341 L180.9,341 L183.3,341 L185.8,341 L188.2,341 L190.7,341 L193.1,341 L195.5,341 L198,341 L200.4,341 L202.9,341 L205.3,341 L207.7,340.9 L210.2,340.9 L212.6,340.9 L215.1,340.8 L217.5,340.7 L219.9,340.6 L222.4,340.5 L224.8,340.3 L227.3,340 L229.7,339.6 L232.1,339.1 L234.6,338.4 L237,337.6 L239.5,336.4 L241.9,335 L244.3,333.2 L246.8,330.9 L249.2,328.1 L251.7,324.7 L254.1,320.6 L256.5,315.7 L259,309.9 L261.4,303.2 L263.9,295.4 L266.3,286.6 L268.7,276.6 L271.2,265.6 L273.6,253.5 L276.1,240.5 L278.5,226.6 L280.9,212 L283.4,197 L285.8,181.7 L288.3,166.5 L290.7,151.7 L293.1,137.6 L295.6,124.5 L298,112.8 L300.5,102.7 L302.9,94.6 L305.3,88.62 L307.8,84.96 L310.2,83.73 L312.7,84.95 L315.1,88.61 L317.5,94.58 L320,102.7 L322.4,112.8 L324.9,124.5 L327.3,137.6 L329.7,151.7 L332.2,166.5 L334.6,181.7 L337.1,196.9 L339.5,212 L341.9,226.5 L344.4,240.4 L346.8,253.5 L349.3,265.6 L351.7,276.6 L354.1,286.5 L356.6,295.4 L359,303.2 L361.5,309.9 L363.9,315.7 L366.3,320.6 L368.8,324.7 L371.2,328.1 L373.7,330.9 L376.1,333.2 L378.5,335 L381,336.4 L383.4,337.6 L385.9,338.4 L388.3,339.1 L390.7,339.6 L393.2,340 L395.6,340.3 L398.1,340.5 L400.5,340.6 L402.9,340.7 L405.4,340.8 L407.8,340.9 L410.3,340.9 L412.7,340.9 L415.1,341 L417.6,341 L420,341 L422.5,341 L424.9,341 L427.3,341 L429.8,341 L432.2,341 L434.7,341 L437.1,341 L439.6,341 L442,341 L444.4,341 L446.9,341 L449.3,341 L451.8,341 L454.2,341 L456.6,341 L459.1,341 L461.5,341 L464,341 L466.4,341 L468.8,341 L471.3,341 L473.7,341 L476.2,341 L478.6,341 L481,341 L483.5,341 L485.9,341 L488.4,341 L490.8,341 L493.2,341 L495.7,341 L498.1,341 L500.6,341 L503,341 L505.4,341 L507.9,341 L510.3,341 L512.8,341 L515.2,341 L517.6,341 L520.1,341 L522.5,341 L525,341 L527.4,341 L529.8,341 L532.3,341 L534.7,341 L537.2,341 L539.6,341 L542,341 L544.5,341 L546.9,341 L549.4,341 L551.8,341 L554.2,341 " fill="none"/></g>
<g clip-path="url(#plot_window)" stroke="rgb(0,100,0)" stroke-width="1"><path d="M66.2,337.8 L68.64,337.6 L71.08,337.4 L73.52,337.2 L75.96,336.9 L78.4,336.7 L80.84,336.4 L83.28,336.2 L85.72,335.9 L88.16,335.6 L90.6,335.3 L93.04,335 L95.48,334.7 L97.92,334.3 L100.4,334 L102.8,333.6 L105.2,333.2 L107.7,332.8 L110.1,332.4 L112.6,332 L115,331.5 L117.4,331.1 L119.9,330.6 L122.3,330.1 L124.8,329.6 L127.2,329.1 L129.6,328.5 L132.1,328 L134.5,327.4 L137,326.8 L139.4,326.2 L141.8,325.6 L144.3,324.9 L146.7,324.2 L149.2,323.6 L151.6,322.9 L154,322.1 L156.5,321.4 L158.9,320.7 L161.4,319.9 L163.8,319.1 L166.2,318.3 L168.7,317.5 L171.1,316.7 L173.6,315.9 L176,315 L178.4,314.2 L180.9,313.3 L183.3,312.4 L185.8,311.5 L188.2,310.6 L190.7,309.7 L193.1,308.7 L195.5,307.8 L198,306.9 L200.4,305.9 L202.9,305 L205.3,304 L207.7,303.1 L210.2,302.1 L212.6,301.2 L215.1,300.2 L217.5,299.3 L219.9,298.3 L222.4,297.4 L224.8,296.4 L227.3,295.5 L229.7,294.6 L232.1,293.7 L234.6,292.8 L237,291.9 L239.5,291 L241.9,290.1 L244.3,289.3 L246.8,288.5 L249.2,287.7 L251.7,286.9 L254.1,286.1 L256.5,285.4 L259,284.6 L261.4,283.9 L263.9,283.3 L266.3,282.6 L268.7,282 L271.2,281.4 L273.6,280.9 L276.1,280.4 L278.5,279.9 L280.9,279.4 L283.4,279 L285.8,278.6 L288.3,278.2 L290.7,277.9 L293.1,277.6 L295.6,277.4 L298,277.2 L300.5,277 L302.9,276.9 L305.3,276.8 L307.8,276.7 L310.2,276.7 L312.7,276.7 L315.1,276.8 L317.5,276.9 L320,277 L322.4,277.2 L324.9,277.4 L327.3,277.6 L329.7,277.9 L332.2,278.2 L334.6,278.6 L337.1,279 L339.5,279.4 L341.9,279.9 L344.4,280.3 L346.8,280.9 L349.3,281.4 L351.7,282 L354.1,282.6 L356.6,283.3 L359,283.9 L361.5,284.6 L363.9,285.4 L366.3,286.1 L368.8,286.9 L371.2,287.7 L373.7,288.5 L376.1,289.3 L378.5,290.1 L381,291 L383.4,291.9 L385.9,292.8 L388.3,293.7 L390.7,294.6 L393.2,295.5 L395.6,296.4 L398.1,297.4 L400.5,298.3 L402.9,299.3 L405.4,300.2 L407.8,301.2 L410.3,302.1 L412.7,303.1 L415.1,304 L417.6,305 L420,305.9 L422.5,306.9 L424.9,307.8 L427.3,308.7 L429.8,309.7 L432.2,310.6 L434.7,311.5 L437.1,312.4 L439.6,313.3 L442,314.1 L444.4,315 L446.9,315.9 L449.3,316.7 L451.8,317.5 L454.2,318.3 L456.6,319.1 L459.1,319.9 L461.5,320.7 L464,321.4 L466.4,322.1 L468.8,322.9 L471.3,323.6 L473.7,324.2 L476.2,324.9 L478.6,325.6 L481,326.2 L483.5,326.8 L485.9,327.4 L488.4,328 L490.8,328.5 L493.2,329.1 L495.7,329.6 L498.1,330.1 L500.6,330.6 L503,331.1 L505.4,331.5 L507.9,332 L510.3,332.4 L512.8,332.8 L515.2,333.2 L517.6,333.6 L520.1,334 L522.5,334.3 L525,334.7 L527.4,335 L529.8,335.3 L532.3,335.6 L534.7,335.9 L537.2,336.2 L539.6,336.4 L542,336.7 L544.5,336.9 L546.9,337.2 L549.4,337.4 L551.8,337.6 L554.2,337.8 " fill="none"/></g>
<g clip-path="url(#plot_window)" stroke="rgb(255,140,0)" stroke-width="1"><path d="M66.2,340.9 L68.64,340.9 L71.08,340.9 L73.52,340.9 L75.96,340.9 L78.4,340.8 L80.84,340.8 L83.28,340.8 L85.72,340.7 L88.16,340.7 L90.6,340.6 L93.04,340.5 L95.48,340.5 L97.92,340.4 L100.4,340.3 L102.8,340.1 L105.2,340 L107.7,339.8 L110.1,339.6 L112.6,339.4 L115,339.2 L117.4,338.9 L119.9,338.6 L122.3,338.2 L124.8,337.8 L127.2,337.4 L129.6,336.9 L132.1,336.3 L134.5,335.7 L137,335 L139.4,334.2 L141.8,333.4 L144.3,332.5 L146.7,331.4 L149.2,330.3 L151.6,329.1 L154,327.8 L156.5,326.3 L158.9,324.8 L161.4,323.1 L163.8,321.3 L166.2,319.4 L168.7,317.3 L171.1,315.1 L173.6,312.8 L176,310.3 L178.4,307.7 L180.9,304.9 L183.3,302 L185.8,299 L188.2,295.9 L190.7,292.6 L193.1,289.3 L195.5,285.8 L198,282.3 L200.4,278.6 L202.9,274.9 L205.3,271.2 L207.7,267.4 L210.2,263.5 L212.6,259.7 L215.1,255.9 L217.5,252.2 L219.9,248.4 L222.4,244.8 L224.8,241.3 L227.3,237.8 L229.7,234.6 L232.1,231.4 L234.6,228.5 L237,225.7 L239.5,223.2 L241.9,220.9 L244.3,218.9 L246.8,217.1 L249.2,215.5 L251.7,214.3 L254.1,213.4 L256.5,212.7 L259,212.4 L261.4,212.4 L263.9,212.7 L266.3,213.3 L268.7,214.2 L271.2,215.3 L273.6,216.8 L276.1,218.6 L278.5,220.6 L280.9,222.9 L283.4,225.4 L285.8,228.1 L288.3,231 L290.7,234.1 L293.1,237.4 L295.6,240.8 L298,244.3 L300.5,247.9 L302.9,251.6 L305.3,255.4 L307.8,259.2 L310.2,263 L312.7,266.8 L315.1,270.6 L317.5,274.4 L320,278.1 L322.4,281.7 L324.9,285.3 L327.3,288.8 L329.7,292.2 L332.2,295.4 L334.6,298.6 L337.1,301.6 L339.5,304.5 L341.9,307.3 L344.4,309.9 L346.8,312.4 L349.3,314.8 L351.7,317 L354.1,319.1 L356.6,321 L359,322.8 L361.5,324.5 L363.9,326.1 L366.3,327.6 L368.8,328.9 L371.2,330.1 L373.7,331.3 L376.1,332.3 L378.5,333.3 L381,334.1 L383.4,334.9 L385.9,335.6 L388.3,336.2 L390.7,336.8 L393.2,337.3 L395.6,337.8 L398.1,338.2 L400.5,338.5 L402.9,338.8 L405.4,339.1 L407.8,339.4 L410.3,339.6 L412.7,339.8 L415.1,340 L417.6,340.1 L420,340.2 L422.5,340.3 L424.9,340.4 L427.3,340.5 L429.8,340.6 L432.2,340.7 L434.7,340.7 L437.1,340.8 L439.6,340.8 L442,340.8 L444.4,340.9 L446.9,340.9 L449.3,340.9 L451.8,340.9 L454.2,340.9 L456.6,340.9 L459.1,341 L461.5,341 L464,341 L466.4,341 L468.8,341 L471.3,341 L473.7,341 L476.2,341 L478.6,341 L481,341 L483.5,341 L485.9,341 L488.4,341 L490.8,341 L493.2,341 L495.7,341 L498.1,341 L500.6,341 L503,341 L505.4,341 L507.9,341 L510.3,341 L512.8,341 L515.2,341 L517.6,341 L520.1,341 L522.5,341 L525,341 L527.4,341 L529.8,341 L532.3,341 L534.7,341 L537.2,341 L539.6,341 L542,341 L544.5,341 L546.9,341 L549.4,341 L551.8,341 L554.2,341 " fill="none"/></g>
<g clip-path="url(#plot_window)" stroke="rgb(127,255,0)" stroke-width="1"><path d="M66.2,341 L68.64,341 L71.08,341 L73.52,341 L75.96,341 L78.4,341 L80.84,341 L83.28,341 L85.72,341 L88.16,341 L90.6,341 L93.04,341 L95.48,341 L97.92,341 L100.4,341 L102.8,341 L105.2,341 L107.7,341 L110.1,341 L112.6,341 L115,341 L117.4,341 L119.9,341 L122.3,341 L124.8,341 L127.2,341 L129.6,341 L132.1,341 L134.5,341 L137,341 L139.4,341 L141.8,341 L144.3,341 L146.7,341 L149.2,341 L151.6,341 L154,341 L156.5,341 L158.9,341 L161.4,341 L163.8,340.9 L166.2,340.9 L168.7,340.9 L171.1,340.9 L173.6,340.9 L176,340.9 L178.4,340.8 L180.9,340.8 L183.3,340.8 L185.8,340.7 L188.2,340.7 L190.7,340.6 L193.1,340.5 L195.5,340.4 L198,340.3 L200.4,340.2 L202.9,340.1 L205.3,340 L207.7,339.8 L210.2,339.6 L212.6,339.4 L215.1,339.1 L217.5,338.8 L219.9,338.5 L222.4,338.2 L224.8,337.8 L227.3,337.3 L229.7,336.8 L232.1,336.2 L234.6,335.6 L237,334.9 L239.5,334.1 L241.9,333.3 L244.3,332.3 L246.8,331.3 L249.2,330.2 L251.7,328.9 L254.1,327.6 L256.5,326.1 L259,324.5 L261.4,322.9 L263.9,321 L266.3,319.1 L268.7,317 L271.2,314.8 L273.6,312.4 L276.1,309.9 L278.5,307.3 L280.9,304.5 L283.4,301.6 L285.8,298.6 L288.3,295.4 L290.7,292.2 L293.1,288.8 L295.6,285.3 L298,281.7 L300.5,278.1 L302.9,274.4 L305.3,270.6 L307.8,266.8 L310.2,263 L312.7,259.2 L315.1,255.4 L317.5,251.6 L320,247.9 L322.4,244.3 L324.9,240.8 L327.3,237.4 L329.7,234.1 L332.2,231 L334.6,228.1 L337.1,225.4 L339.5,222.9 L341.9,220.6 L344.4,218.6 L346.8,216.8 L349.3,215.4 L351.7,214.2 L354.1,213.3 L356.6,212.7 L359,212.4 L361.5,212.4 L363.9,212.7 L366.3,213.4 L368.8,214.3 L371.2,215.5 L373.7,217.1 L376.1,218.9 L378.5,220.9 L381,223.2 L383.4,225.7 L385.9,228.5 L388.3,231.4 L390.7,234.6 L393.2,237.8 L395.6,241.3 L398.1,244.8 L400.5,248.4 L402.9,252.1 L405.4,255.9 L407.8,259.7 L410.3,263.5 L412.7,267.3 L415.1,271.1 L417.6,274.9 L420,278.6 L422.5,282.2 L424.9,285.8 L427.3,289.3 L429.8,292.6 L432.2,295.9 L434.7,299 L437.1,302 L439.6,304.9 L442,307.7 L444.4,310.3 L446.9,312.8 L449.3,315.1 L451.8,317.3 L454.2,319.4 L456.6,321.3 L459.1,323.1 L461.5,324.8 L464,326.3 L466.4,327.8 L468.8,329.1 L471.3,330.3 L473.7,331.4 L476.2,332.5 L478.6,333.4 L481,334.2 L483.5,335 L485.9,335.7 L488.4,336.3 L490.8,336.9 L493.2,337.4 L495.7,337.8 L498.1,338.2 L500.6,338.6 L503,338.9 L505.4,339.2 L507.9,339.4 L510.3,339.6 L512.8,339.8 L515.2,340 L517.6,340.1 L520.1,340.3 L522.5,340.4 L525,340.5 L527.4,340.5 L529.8,340.6 L532.3,340.7 L534.7,340.7 L537.2,340.8 L539.6,340.8 L542,340.8 L544.5,340.9 L546.9,340.9 L549.4,340.9 L551.8,340.9 L554.2,340.9 " fill="none"/></g>
</g>
<g id="plotPoints" clip-path="url(#plot_window)"></g>
<g id="legendBackground" stroke="rgb(119,136,153)" fill="rgb(255,255,255)" stroke-width="1"><rect x="568.2" y="58" width="173.8" height="165"/><rect x="568.2" y="58" width="173.8" height="165"/></g>
<g id="legendPoints"><g stroke="rgb(0,0,139)" fill="rgb(255,255,255)" stroke-width="1"><line x1="583.2" y1="88" x2="598.2" y2="88"/></g>
<g stroke="rgb(139,0,0)" fill="rgb(255,255,255)" stroke-width="1"><line x1="583.2" y1="118" x2="598.2" y2="118"/></g>
<g stroke="rgb(0,100,0)" fill="rgb(255,255,255)" stroke-width="1"><line x1="583.2" y1="148" x2="598.2" y2="148"/></g>
<g stroke="rgb(255,140,0)" fill="rgb(255,255,255)" stroke-width="1"><line x1="583.2" y1="178" x2="598.2" y2="178"/></g>
<g stroke="rgb(127,255,0)" fill="rgb(255,255,255)" stroke-width="1"><line x1="583.2" y1="208" x2="598.2" y2="208"/></g>
</g>
<g id="legendText">
<text x="605.7" y="88" font-size="15" font-family="Verdana">&#x3BC; = 0, &#x3C3; = 1</text>
<text x="605.7" y="118" font-size="15" font-family="Verdana">&#x3BC; = 0, &#x3C3; = 0.5</text>
<text x="605.7" y="148" font-size="15" font-family="Verdana">&#x3BC; = 0, &#x3C3; = 2</text>
<text x="605.7" y="178" font-size="15" font-family="Verdana">&#x3BC; = -1, &#x3C3; = 1</text>
<text x="605.7" y="208" font-size="15" font-family="Verdana">&#x3BC; = 1, &#x3C3; = 1</text></g>
<g id="title">
<text x="375" y="40" text-anchor="middle" font-size="20" font-family="Verdana">Normal Distribution PDF</text></g>
<g id="plotXValues"></g>
<g id="plotYValues"></g>
</svg>
